# xmcd
#
# Track frame offsets: 
#        150
#        19327
#        32507
#        52380
#        63773
#        76154
#        87071
#        102079
#        120804
#        136870
#        148765
#        161596
#        179545
#        188342
#        203197
#
# Disc length: 2972 seconds
#
# Revision: 0
# Processed by: cddbd v1.5.1PL0 Copyright (c) Steve Scherf et al.
# Submitted via: ExactAudioCopy v0.95a5
#
DISCID=bc0b9a0f
DTITLE=Various Artist - Country Classics "God Bless Country Music"
DYEAR=1900
DGENRE=Country
TTITLE0=Tanya Tucker/Delta Dawn
TTITLE1=Charlie Rich/Behind Closed Doors
TTITLE2=Bellamy Brothers/If I Said You Had A Beautiful Body
TTITLE3=Mel Tillis/I Believe In You
TTITLE4=Lynn Anderson/Rose Garden
TTITLE5=Dottie West/A Lesson In Leavin'
TTITLE6=Jeannie C. Riley/Harper Valley P.T.A.
TTITLE7=T.G. Sheppard/Last Cheaters Waltz
TTITLE8=Sylvia/Nobody
TTITLE9=Connie Smith/Once A Day
TTITLE10=Johnny Tilloston/It Keeps Right On Hurtin'
TTITLE11=Earl Thomas/Somewhere Between Right And Wrong
TTITLE12=Jimmy Dean/Big John
TTITLE13=Don Gibson/Sweet Dreams
TTITLE14=Lee Greenwood/God Bless The USA
EXTD=
EXTT0=
EXTT1=
EXTT2=
EXTT3=
EXTT4=
EXTT5=
EXTT6=
EXTT7=
EXTT8=
EXTT9=
EXTT10=
EXTT11=
EXTT12=
EXTT13=
EXTT14=
PLAYORDER=
